<svg xmlns="http://www.w3.org/2000/svg" viewBox="0 0 96 96" role="img" aria-label="Apple">
  <path d="M49 27c-2-10 2-18 12-22 1 10-3 18-12 22Z" fill="#67934b"/>
  <path d="M48 29c-1-9 0-16 4-23" fill="none" stroke="#5d3a24" stroke-linecap="round" stroke-width="6"/>
  <path d="M48 32c11-10 31-6 36 10 6 20-11 45-24 48-6 1-8-3-12-3s-7 4-13 3C22 87 6 62 12 42c5-16 25-20 36-10Z" fill="#b52d2f"/>
  <path d="M24 44c4-7 11-10 18-9" fill="none" stroke="#ef8b7c" stroke-linecap="round" stroke-width="5" opacity=".65"/>
</svg>
